<svg xmlns="http://www.w3.org/2000/svg" fill="none" viewBox="0 0 256 256">
  <rect width="256" height="256" fill="url(#paint0_linear_3_2)" rx="67"/>
  <path fill="#fff" fill-rule="evenodd" d="M120 32h1c16.3 0 32.1 4.3 46.1 12.2h-9.5c-5.3 0-8 0-10 1a9.5 9.5 0 0 0-3.3 2.7 83 83 0 0 0-4.2-1.2l3 3.3c-.7 2-.7 4.6-.7 9.4v3.4c-5-6.7-10.6-12.8-17-18.3h-.6v45.8c5.9-.2 11.8-.9 17.6-2V97c-5.8 1-11.7 1.7-17.6 1.9v24.3h38.8c-.2-5-.8-9.9-1.7-14.7h8.7c.8 4.8 1.4 9.8 1.6 14.7h31.3c-.3-5-1-10-2.1-14.7H214A95.5 95.5 0 1 1 120 32ZM61.5 69a83.1 83.1 0 0 1 39.3-22.3 118.8 118.8 0 0 0-23 35.5 115 115 0 0 1-19.4-10l3-3.2Zm-24 54.2c.8-16 6.2-31.4 15.5-44.3 7 4.5 14.2 8.3 21.8 11.3a118.8 118.8 0 0 0-6 33H37.5ZM53 176.1a83.1 83.1 0 0 1-15.5-44.3h31.3a115 115 0 0 0 5.8 33c-7.5 3-14.7 6.8-21.6 11.3Zm8.8 10.2a83 83 0 0 1-3.4-3.5c6-3.9 12.5-7.2 19.1-9.9a119 119 0 0 0 22.2 35 83.1 83.1 0 0 1-38-21.6Zm52.5 24 1.9.2v-45.8c-10.5.4-20.7 2.2-30.6 5.3a110.2 110.2 0 0 0 28.7 40.4Zm10.5.2 1.8-.1a110.2 110.2 0 0 0 28.7-40.4c-9.8-3.1-20.1-5-30.5-5.3v45.8Zm54.4-24.2a83.1 83.1 0 0 1-38 21.7 118.8 118.8 0 0 0 22.2-35c6.6 2.6 13 6 19.1 9.8a83 83 0 0 1-3.3 3.5Zm24.3-54.5c-.9 16-6.3 31.4-15.6 44.3-6.8-4.5-14-8.2-21.5-11.2 3.5-10.7 5.4-21.8 5.8-33.1h31.3Zm-87.3-87.3h-.7a110.2 110.2 0 0 0-29.6 40.6c9.8 3 20 4.8 30.3 5.2V44.5ZM82.9 93c-3.2 9.7-5.1 19.9-5.5 30.1h38.8V99c-11.4-.4-22.6-2.4-33.3-5.8Zm80.7 38.7h-38.8V156c11.4.4 22.7 2.4 33.5 5.9 3.2-9.8 5-20 5.3-30.2ZM116.2 156v-24.3H77.3c.4 10.3 2.2 20.4 5.3 30.2 10.8-3.5 22.1-5.5 33.6-5.9Z" clip-rule="evenodd"/>
  <path fill="#fff" fill-rule="evenodd" d="M149.6 54.1c-1 2-1 4.7-1 10v23.4c0 5.3 0 8 1 10a10 10 0 0 0 4.2 4.2c2 1 4.7 1 10 1H227c5.4 0 8 0 10-1a10 10 0 0 0 4.2-4.2c1-2 1-4.7 1-10V64.2c0-5.4 0-8-1-10a9.5 9.5 0 0 0-4.1-4.2c-2-1-4.7-1-10-1h-63.4c-5.3 0-8 0-10 1a9.5 9.5 0 0 0-4.2 4.1Zm73.3 35.5c2.5-3.4 3.7-8.1 3.7-14a23 23 0 0 0-3.7-14c-2.4-3.4-6-5-10.7-5-4.7 0-8.2 1.7-10.7 5a23.5 23.5 0 0 0-3.7 14 23 23 0 0 0 3.7 14c2.4 3.4 6 5 10.7 5 4.7 0 8.2-1.6 10.7-5Zm-6.4-23.7c1 2 1.4 5.2 1.4 9.7 0 4.5-.5 7.7-1.3 9.7-.9 2-2.3 3-4.4 3-2 0-3.5-1-4.4-3-.8-2-1.3-5.2-1.3-9.7 0-4.5.5-7.7 1.3-9.7 1-2 2.4-3 4.4-3 2 0 3.5 1 4.3 3Zm-28.3 27.9h7.5l-2-36.3h-8.9L181 80.9l-4-23.4h-8.8l-2 36.3h7.3l.3-15.4v-2.8c0-3.2-.2-6.8-.5-10.8l4.4 22.8h6.5l4-22.8a363.5 363.5 0 0 0-.5 10.3v3.1l.5 15.6Z" clip-rule="evenodd"/>
  <defs>
    <linearGradient id="paint0_linear_3_2" x1="128" x2="128" y1="0" y2="256" gradientUnits="userSpaceOnUse">
      <stop stop-color="#13BA7B"/>
      <stop offset="1" stop-color="#0B8155"/>
    </linearGradient>
  </defs>
</svg>